<svg xmlns="http://www.w3.org/2000/svg" width="256" height="256"><path fill-opacity=".016" d="M0 128.004v128.004l128.25-.254 128.25-.254.254-127.75L257.008 0H0v128.004m.485.496c0 70.4.119 99.053.265 63.672.146-35.38.146-92.98 0-128C.604 29.153.485 58.1.485 128.5" fill="#1976D2" fill-rule="evenodd"/><path fill-opacity=".079" d="M96 1.495a296.22 296.22 0 01-8.604 2.43l-4.105 1.074-2.334 13.326-2.334 13.327-4.744 2.529-4.743 2.529-11.178-3.855C51.809 30.735 46.051 29 45.162 29c-.89 0-5.075 3.437-9.3 7.638l-7.683 7.637 4.412 12.882 4.412 12.881-2.71 4.231c-1.49 2.327-2.73 4.307-2.754 4.4-.024.093-5.668 1.162-12.542 2.375-6.873 1.212-12.842 2.516-13.263 2.897-.878.792-5.703 17.761-5.722 20.121-.006.86 4.383 5.354 9.755 9.988l9.766 8.426v5.586c0 5.408-.143 5.703-4.516 9.3-2.485 2.043-6.978 5.922-9.987 8.619l-5.469 4.904 2.148 8.808c3.621 14.839 2.523 13.676 14.949 15.843 5.963 1.041 11.753 1.849 12.867 1.798 1.419-.066 2.807 1.306 4.64 4.59l2.616 4.684-4.278 12.491-4.278 12.491 7.901 8.617 7.901 8.617 12.615-4.84 12.615-4.84 4.685 2.616 4.686 2.616 2.332 13.313 2.331 13.312 4.105 1.054c2.257.579 6.423 1.704 9.258 2.499 2.835.795 6.071 1.446 7.193 1.446 1.328 0 4.921-3.311 10.309-9.5l8.27-9.5 6.037.065 6.037.065 8 9.435c4.583 5.405 8.763 9.435 9.786 9.435 2.635 0 19.069-4.146 20.096-5.071 1.026-.923 5.609-24.082 4.975-25.139-.699-1.167 10.016-6.834 11.643-6.159 9.272 3.851 21.806 8.343 22.997 8.242.827-.069 4.855-3.678 8.953-8.019l7.45-7.893-2.822-8.73c-1.552-4.802-3.603-10.371-4.557-12.374l-1.737-3.644 3.166-5.132c1.741-2.823 3.385-4.913 3.653-4.645.268.268 6.051-.528 12.851-1.77l12.363-2.258 2.816-10.454c2.911-10.806 3.421-14.134 2.098-13.704-.423.137-4.903-3.35-9.955-7.75l-9.185-8 .008-5.5.008-5.5 9.946-8.806c7.353-6.51 9.947-9.428 9.947-11.191 0-1.312-.369-2.613-.82-2.891-.45-.279-1.665-3.904-2.699-8.055-1.184-4.756-2.453-7.719-3.43-8.008-.853-.253-6.798-1.423-13.212-2.602l-11.661-2.142-2.896-4.659-2.897-4.659 2.326-5.994c1.279-3.296 3.309-9.04 4.511-12.764l2.185-6.772-7.428-7.478c-4.086-4.114-8.178-7.479-9.094-7.479-.915 0-6.776 1.766-13.025 3.924l-11.36 3.923-5.26-3.003c-2.893-1.651-5.079-3.304-4.859-3.673.617-1.031-3.997-24.199-4.999-25.1-1.028-.926-17.464-5.072-20.096-5.07-1.015.001-5.375 4.162-10.102 9.642l-8.315 9.64-5.685.108c-4.947.095-5.935-.215-7.624-2.391-1.067-1.375-4.819-5.762-8.34-9.75-7.016-7.948-7.9-8.262-16.22-5.755m15.113 38.05C75.938 47.176 50.082 71.641 40.878 106c-3.257 12.159-3.277 31.96-.046 43.933C51.879 190.86 86.886 218 128.63 218c24.499 0 45.677-8.995 63.37-26.915 17.818-18.047 26.243-38.299 26.243-63.085S209.818 82.962 192 64.915c-13.596-13.77-27.764-21.536-46.208-25.33-9.349-1.923-25.913-1.942-34.679-.04m2.387 20.021c-3.85.849-11.221 3.581-16.379 6.073-7.76 3.749-10.781 5.941-17.5 12.696-9.033 9.082-13.617 16.141-17.097 26.33-3.846 11.26-4.012 12.972-1.325 13.691 1.266.339 10.941.623 21.5.63l19.199.014 2.387 3.25c1.313 1.787 4.365 6.512 6.781 10.5 2.417 3.988 4.628 7.241 4.914 7.23.286-.012 4.57-10.619 9.52-23.572 4.95-12.953 9.71-24.193 10.579-24.979 2.295-2.077 5.284-1.753 7.573.821 1.1 1.237 5.498 7.763 9.772 14.5l7.772 12.25 16.152-.014c8.884-.007 17.115-.272 18.293-.588 2.095-.562 2.11-.705.714-6.736-5.367-23.188-23.79-42.954-46.855-50.271-10.333-3.277-25.838-4.063-36-1.825M.195 103.5c.02 1.65.244 2.204.498 1.231.254-.973.237-2.323-.037-3-.274-.677-.481.119-.461 1.769m130.923 29.952c-5.161 13.439-10.035 24.686-10.832 24.992-2.767 1.061-5.984.547-7.459-1.194-.816-.963-5.008-7.551-9.316-14.64l-7.832-12.891-9.59.636c-5.274.349-13.671.637-18.66.64l-9.071.005.766 6.37c1.834 15.227 8.58 28.554 20.399 40.295 6.739 6.695 9.907 8.98 17.598 12.696 37.792 18.256 80.763 1.686 96.47-37.201 1.311-3.244 2.983-9.444 3.717-13.779l1.334-7.881-21.071-.787c-11.589-.433-21.631-.981-22.315-1.217-.684-.236-4.165-4.944-7.734-10.462-3.57-5.519-6.61-10.031-6.756-10.026-.146.004-4.488 11.004-9.648 24.444M.195 152.5c.02 1.65.244 2.204.498 1.231.254-.973.237-2.323-.037-3-.274-.677-.481.119-.461 1.769" fill="#1976D2" fill-rule="evenodd"/><path fill-opacity=".234" d="M93.09 2.376c-4.626 1.202-8.782 2.846-9.237 3.655-1.138 2.024-4.918 23.055-4.318 24.026.267.431-1.914 2.157-4.847 3.835l-5.331 3.051-12.691-4.201-12.691-4.201-7.714 7.714-7.714 7.714 4.276 12.956L37.1 69.882l-2.685 4.309c-1.476 2.37-2.761 4.409-2.855 4.531-.094.123-5.096 1.144-11.116 2.27-6.019 1.127-11.876 2.253-13.016 2.502-1.674.367-2.606 2.368-4.854 10.418-1.53 5.479-2.623 10.367-2.428 10.862C.758 106.329 17.691 121 18.873 121c.719 0 1.116 2.264 1.098 6.25l-.03 6.25-9.97 8.484c-5.484 4.667-9.974 8.942-9.979 9.5-.004.559 1.187 5.619 2.646 11.245 1.797 6.929 3.17 10.377 4.257 10.689 3.097.887 19.567 3.729 22.073 3.808 1.963.061 3.243 1.28 5.694 5.422 1.739 2.939 2.779 5.58 2.31 5.869-.468.29-2.533 5.637-4.589 11.883l-3.738 11.357 7.428 8.121c4.085 4.466 7.877 8.12 8.427 8.119.55-.001 6.34-2.029 12.866-4.506l11.866-4.505 5.394 3.086c2.967 1.698 5.179 3.434 4.916 3.86-.896 1.45 3.675 23.558 5.108 24.704 1.417 1.133 16.977 5.364 19.728 5.364.797 0 5.127-4.275 9.622-9.5l8.172-9.5 6.164.036 6.164.037 8 9.399c4.4 5.17 8.675 9.42 9.5 9.444 1.788.052 19.96-4.542 20.635-5.218.258-.258 1.397-5.808 2.531-12.334 1.134-6.525 2.198-12.367 2.366-12.983.167-.615 2.435-2.309 5.038-3.764l4.734-2.646 12.429 4.676 12.429 4.676 8.042-8.042 8.041-8.041-3.756-11.37c-2.066-6.254-4.12-11.834-4.564-12.402-1.17-1.495 4.623-10.947 6.784-11.07 4.457-.253 22.888-3.779 23.736-4.54.52-.467 2.191-5.238 3.713-10.603 2.686-9.467 3.502-14.249 2.213-12.959-.346.345-4.459-2.73-9.141-6.834-4.682-4.104-8.899-7.462-9.371-7.462-.473 0-.859-3.15-.859-7s.397-7 .881-7c.485 0 4.985-3.626 10-8.057 6.689-5.91 9.119-8.692 9.119-10.441 0-1.311-.378-2.618-.841-2.904-.462-.286-1.645-3.575-2.629-7.309-.983-3.734-2.292-7.285-2.909-7.892-.616-.606-4.496-1.664-8.621-2.35-16.828-2.798-16.624-2.715-20.007-8.212-2.009-3.266-2.768-5.422-2.174-6.176 1.081-1.372 8.549-23.685 8.035-24.005-.195-.122-3.805-3.509-8.022-7.527l-7.669-7.307-12.518 4.055-12.518 4.055-4.645-2.596c-2.555-1.428-4.783-3.1-4.95-3.715-.168-.616-1.232-6.458-2.366-12.983-1.134-6.526-2.252-12.055-2.485-12.288-.876-.876-19.195-5.416-20.734-5.138C150.407.488 135 17.406 135 18.817c.001.376-2.812.683-6.25.683-5.448 0-6.507-.318-8.25-2.479C111.919 6.386 105.565.009 103.636.096c-1.175.052-5.921 1.079-10.546 2.28m17.244 24.105c-39.717 7.206-71.582 36.779-81.986 76.09-2.298 8.679-2.628 11.88-2.628 25.429 0 13.465.337 16.774 2.571 25.206 19.649 74.168 108.268 102.475 166.93 53.322 14.55-12.191 27.814-33.311 32.99-52.528 1.974-7.332 2.289-10.905 2.289-26 0-21.069-1.617-28.45-9.965-45.5-17.578-35.901-52.966-57.766-92.916-57.41-5.565.05-13.344.676-17.285 1.391m-33.893 8.074c-1.864 1.494-1.852 1.512.309.465 1.237-.6 2.25-1.3 2.25-1.555 0-.765-.519-.544-2.559 1.09M219 73c.589 1.1 1.295 2 1.57 2 .275 0 .019-.9-.57-2s-1.295-2-1.57-2c-.275 0-.019.9.57 2m-103.366 3.586c-16.804 4.068-32.462 18.451-37.352 34.312-.95 3.081-2.19 5.933-2.755 6.337-.565.404.098.802 1.473.885 1.375.083 7.876.428 14.446.766l11.946.614 5.979 9.775c3.288 5.377 6.318 9.427 6.734 9 .415-.426 4.655-10.9 9.421-23.275 4.767-12.375 9.147-23.085 9.735-23.801.614-.748 2.579-1.173 4.627-1 3.405.288 3.954.922 12.586 14.538l9.026 14.238 4.5.004c2.475.002 6.834-.277 9.686-.619l5.185-.623-2.264-6.238c-3.287-9.056-7.201-15.26-13.585-21.534-12.603-12.384-31.9-17.611-49.388-13.379M.195 103.5c.02 1.65.244 2.204.498 1.231.254-.973.237-2.323-.037-3-.274-.677-.481.119-.461 1.769M131.5 133.642c-9.465 24.819-10.936 27.218-15.926 25.966-1.809-.454-4.614-4.167-10.85-14.36l-8.41-13.748-11.407-.19c-6.274-.104-10.844.046-10.157.334.688.287 1.25 1.788 1.25 3.334 0 9.189 7.861 24.127 17.03 32.364 30.584 27.471 78.998 11.069 87.341-29.592l1.385-6.75h-12.444c-6.844 0-13.229-.42-14.188-.934-.959-.513-4.417-5.233-7.684-10.489-3.267-5.256-6.165-9.552-6.44-9.546-.275.005-4.55 10.63-9.5 23.611M21.336 128c0 4.125.177 5.813.392 3.75.216-2.062.216-5.437 0-7.5-.215-2.062-.392-.375-.392 3.75M.195 152.5c.02 1.65.244 2.204.498 1.231.254-.973.237-2.323-.037-3-.274-.677-.481.119-.461 1.769m182.246 67.055c-1.864 1.494-1.852 1.512.309.465 1.238-.6 2.25-1.3 2.25-1.555 0-.765-.519-.544-2.559 1.09" fill="#1976D2" fill-rule="evenodd"/><path fill-opacity=".316" d="M94.706 2.22C90.42 3.334 87.1 4.434 87.33 4.664c.23.229 4.306-.558 9.057-1.749l8.639-2.167 4.237 4.875c2.33 2.681 5.983 6.675 8.118 8.876 3.35 3.453 3.487 3.52 1 .488C109.826 4.554 105.456.01 104.059.097c-.857.054-5.066 1.009-9.353 2.123m49.578 5.53c-3.754 4.263-7.491 8.691-8.305 9.842-.813 1.151-2.154 2.38-2.979 2.732-1.275.544-1.264.606.067.408.862-.127 5.193-4.507 9.625-9.732 7.759-9.148 8.202-9.493 11.933-9.321 2.944.135 3.394-.028 1.875-.68-3.984-1.71-5.503-.87-12.216 6.751m15.529-5.067c.721.289 1.584.253 1.916-.079.332-.332-.258-.568-1.312-.525-1.165.048-1.402.285-.604.604m4 1c.721.289 1.584.253 1.916-.079.332-.332-.258-.568-1.312-.525-1.165.048-1.402.285-.604.604m4 1c.721.289 1.584.253 1.916-.079.332-.332-.258-.568-1.312-.525-1.165.048-1.402.285-.604.604M171.71 7c.288 1.1.696 2 .907 2 .21 0 .383-.9.383-2s-.408-2-.906-2c-.499 0-.671.9-.384 2M83.195 9.5c.02 1.65.244 2.204.498 1.231.254-.973.237-2.323-.037-3-.274-.677-.481.119-.461 1.769m89.963 2.5c0 1.375.227 1.938.504 1.25.278-.687.278-1.812 0-2.5-.277-.687-.504-.125-.504 1.25m-91 3c0 1.375.227 1.938.504 1.25.278-.687.278-1.812 0-2.5-.277-.687-.504-.125-.504 1.25m92 2c0 1.375.227 1.938.504 1.25.278-.687.278-1.812 0-2.5-.277-.687-.504-.125-.504 1.25m-93 3c0 1.375.227 1.938.504 1.25.278-.687.278-1.812 0-2.5-.277-.687-.504-.125-.504 1.25m39.842.031c0 .533.675.969 1.5.969s1.5-.177 1.5-.393c0-.216-.675-.652-1.5-.969-.825-.316-1.5-.139-1.5.393m6.813-.348c.721.289 1.584.253 1.916-.079.332-.332-.258-.568-1.312-.525-1.165.048-1.402.285-.604.604m47.71 3.817c.25 2.2.46 5.003.466 6.23.008 1.598 1.172 2.822 4.116 4.323 2.257 1.152 3.842 1.67 3.521 1.151-.321-.519-1.943-1.507-3.605-2.195-2.4-.995-3.045-1.894-3.139-4.38-.065-1.721-.5-4.479-.966-6.129-.742-2.625-.791-2.5-.393 1m-95.675 2.25c-.228 4.112-.332 4.64-1.176 5.989-.505.806-.31 1.059.56.726 1.225-.471 2.41-9.465 1.246-9.465-.263 0-.547 1.238-.63 2.75M36.164 36.414l-7.584 7.413 1.789 5.675c.984 3.12 1.977 5.486 2.207 5.255.23-.23-.313-2.563-1.206-5.186l-1.625-4.767 7.367-7.417c4.289-4.318 7.933-7.2 8.721-6.898.744.286 2.548.747 4.01 1.024 2.005.381 1.799.154-.843-.928-1.925-.788-3.894-1.467-4.376-1.509-.482-.042-4.289 3.26-8.46 7.338M199 33.087c-6.325 2.165-12.175 3.679-13 3.365-1.142-.434-1.223-.291-.338.601.887.894 4.166.17 13.858-3.06l12.697-4.231 8.141 7.869L228.5 45.5l-7.977-8.25c-4.387-4.538-8.437-8.216-9-8.174-.562.042-6.198 1.847-12.523 4.011M72.698 35.095c-2.175 1.148-4.743 1.769-6 1.45-2.188-.553-2.188-.55-.087.541 1.679.871 2.961.663 6.25-1.015C75.138 34.909 77 33.743 77 33.48c0-.655-.003-.654-4.302 1.615m149.413 23.043c-1.161 3.438-2.078 6.725-2.037 7.306.041.581 1.163-2.06 2.493-5.868 1.331-3.808 2.247-7.096 2.037-7.306-.211-.21-1.332 2.431-2.493 5.868M34.086 60c-.031.825.381 2.175.914 3 1.181 1.828 1.181.249 0-2.5-.567-1.319-.878-1.489-.914-.5M36 65.577c0 .563.482 1.505 1.07 2.093.761.761.029 2.7-2.53 6.7-1.981 3.097-3.376 5.63-3.101 5.63.275 0 2.098-2.498 4.051-5.552 3.305-5.167 3.446-5.701 2.031-7.722C36.684 65.532 36 65.015 36 65.577m182.509 2.409C217.932 68.92 222.63 78 223.69 78c.275 0-.69-2.031-2.145-4.514s-2.372-4.958-2.036-5.5c.335-.542.384-.986.109-.986s-.774.444-1.109.986M25.75 80.662c.688.278 1.813.278 2.5 0 .688-.277.125-.504-1.25-.504s-1.937.227-1.25.504M229.5 81c1.65.42 4.125.763 5.5.763 2.23 0 2.176-.082-.5-.763-1.65-.42-4.125-.763-5.5-.763-2.23 0-2.176.082.5.763m-213 1c-2.676.681-2.73.763-.5.763 1.375 0 3.85-.343 5.5-.763 2.676-.681 2.73-.763.5-.763-1.375 0-3.85.343-5.5.763m224 1c1.65.42 4.125.763 5.5.763 2.23 0 2.176-.082-.5-.763-1.65-.42-4.125-.763-5.5-.763-2.23 0-2.176.082.5.763M6.746 84.25c-.9.688-1.889 2.6-2.197 4.25l-.561 3 1.143-3c1.457-3.825 1.202-3.598 5.068-4.514 2.871-.679 2.968-.795.742-.884-1.407-.056-3.295.461-4.195 1.148m244.333 3.333c.048 1.165.285 1.402.604.605.289-.722.253-1.585-.079-1.917-.332-.332-.568.258-.525 1.312M252.141 91c0 .825.386 2.4.859 3.5.542 1.261.859 1.445.859.5 0-.825-.386-2.4-.859-3.5-.542-1.261-.859-1.445-.859-.5M2.571 94.571c-.367 1.466-.475 2.858-.24 3.094.236.235.73-.771 1.098-2.236.367-1.466.475-2.858.24-3.094-.236-.235-.73.771-1.098 2.236m251.435 2.936c-.003.553.399 2.418.893 4.142.875 3.05.658 3.346-7.902 10.744-4.841 4.184-9.296 7.607-9.899 7.607-.604 0-1.098.472-1.098 1.05 0 1.602 2.036.171 11.947-8.394 4.979-4.304 9.053-8.41 9.053-9.126 0-.716-.672-2.59-1.494-4.166-.821-1.575-1.496-2.411-1.5-1.857M1.079 100.583c.048 1.165.285 1.402.604.605.289-.722.253-1.585-.079-1.917-.332-.332-.568.258-.525 1.312M8.5 112.358c4.4 4.178 8.787 7.861 9.75 8.186 1.442.487 1.75 1.813 1.75 7.523 0 4.389-.405 6.933-1.104 6.933-.606 0-4.994 3.475-9.75 7.723-4.755 4.247-8.809 7.823-9.009 7.946-.199.123.189 2.522.863 5.331.674 2.809 1.429 4.904 1.678 4.655.25-.249-.072-2.403-.713-4.786l-1.167-4.333 7.351-6.789c4.043-3.735 8.589-7.467 10.101-8.294 2.587-1.415 2.75-1.912 2.75-8.364 0-6.385-.19-6.982-2.75-8.637-1.512-.979-6.125-4.684-10.25-8.234l-7.5-6.456 8 7.596M236.3 128c0 3.025.187 4.262.416 2.75.229-1.512.229-3.987 0-5.5s-.416-.275-.416 2.75m-.3 6.965c0 .569.563 1.039 1.25 1.043.688.004 4.424 2.817 8.304 6.25s7.93 6.891 9 7.684c1.823 1.35 1.819 1.31-.054-.638-3.454-3.59-14.853-13.422-16.717-14.42-1.177-.63-1.783-.603-1.783.081m18.083 22.618c-.645 2.563-.986 4.848-.756 5.077.229.229.944-1.68 1.59-4.243.645-2.563.986-4.848.756-5.077-.229-.229-.944 1.68-1.59 4.243M3.542 164.367C5.023 172.022 5.304 173 6.027 173c.428 0 .14-2.137-.639-4.75-1.774-5.952-2.569-7.625-1.846-3.883m248.537 1.216c.048 1.165.285 1.402.604.605.289-.722.253-1.585-.079-1.917-.332-.332-.568.258-.525 1.312m-1 4c.048 1.165.285 1.402.604.605.289-.722.253-1.585-.079-1.917-.332-.332-.568.258-.525 1.312m-241.81 4.11c.973.254 2.323.237 3-.037.677-.274-.119-.481-1.769-.461-1.65.02-2.204.244-1.231.498m235.481-.031c.688.278 1.813.278 2.5 0 .688-.277.125-.504-1.25-.504s-1.937.227-1.25.504m-230 1c.688.278 1.813.278 2.5 0 .688-.277.125-.504-1.25-.504s-1.937.227-1.25.504m224.519.031c.973.254 2.323.237 3-.037.677-.274-.119-.481-1.769-.461-1.65.02-2.204.244-1.231.498m-219 1c.973.254 2.323.237 3-.037.677-.274-.119-.481-1.769-.461-1.65.02-2.204.244-1.231.498m213.481-.031c.688.278 1.813.278 2.5 0 .688-.277.125-.504-1.25-.504s-1.937.227-1.25.504m-205.803 1.076c1.896.23 4.058 1.17 4.805 2.09 1.19 1.465 1.223 1.393.268-.578-.866-1.788-1.853-2.217-4.805-2.09l-3.715.16 3.447.418m195.186 2.012c-1.185 2.744-1.184 2.746.59.562 1.027-1.266 3.253-2.358 5.277-2.59 3.447-.396 3.438-.404-.589-.562-3.578-.14-4.239.185-5.278 2.59M35 183c.589 1.1 1.295 2 1.57 2 .275 0 .019-.9-.57-2s-1.295-2-1.57-2c-.275 0-.019.9.57 2m185 1c-.589 1.1-.845 2-.57 2s.981-.9 1.57-2c.589-1.1.845-2 .57-2s-.981.9-1.57 2m-182.759 2.498c.408.45.231 1.433-.392 2.184-.624.752-.94 1.56-.704 1.797.237.236.967-.429 1.622-1.478.928-1.486.92-2.065-.037-2.615-.677-.389-.896-.338-.489.112M218 187.741c0 .472.396 1.287.879 1.809.484.522 1.429 2.668 2.1 4.767s1.399 3.638 1.618 3.42c.597-.598-2.648-9.65-3.691-10.295-.498-.308-.906-.173-.906.299M31.391 203.392l-2.785 8.551 7.447 7.778c4.096 4.279 7.736 7.913 8.088 8.076.353.164 2.153-.394 4-1.24 2.198-1.005 2.495-1.32.859-.909-1.375.344-2.955.796-3.51 1.004-.556.208-4.365-2.999-8.466-7.127l-7.455-7.506 2.689-8.202c1.479-4.512 2.516-8.377 2.303-8.589-.212-.212-1.639 3.462-3.17 8.164m188.053 16.112c-4.369 4.677-7.705 8.502-7.413 8.5.293-.002 3.004-2.592 6.027-5.754 6.987-7.312 10.421-11.25 9.81-11.25-.264 0-4.055 3.827-8.424 8.504m-155.944.568c-2.2 1.058-2.904 1.643-1.565 1.3 3.661-.938 8.779-3.299 7.065-3.259-.825.02-3.3.901-5.5 1.959m117.885 1.004c-4.992 2.893-5.13 3.099-5.775 8.585-.363 3.092-.452 5.83-.197 6.085.255.256.764-2.192 1.132-5.438.664-5.869.696-5.918 5.811-8.68 4.428-2.391 5.546-2.624 8.033-1.675 1.588.607 3.074.917 3.301.691.407-.407-5.424-2.697-6.589-2.588-.331.031-2.903 1.39-5.716 3.02M71 219.449c0 .275 1.35 1.198 3 2.051 1.65.853 3 1.326 3 1.051 0-.275-1.35-1.198-3-2.051-1.65-.853-3-1.326-3-1.051m125 2.382c.825.51 2.625 1.228 4 1.596 1.737.465 2.042.386 1-.258-.825-.51-2.625-1.228-4-1.596-1.737-.465-2.042-.386-1 .258m-141.5 1.704c-2.501 1.205-2.584 1.343-.5.834 2.834-.692 6.018-2.316 4.5-2.293-.55.008-2.35.664-4 1.459m24.139.69c.408.661.904 2.778 1.102 4.705.537 5.232 1.259 5.053 1.028-.254-.121-2.781-.735-4.833-1.537-5.141-.849-.325-1.065-.074-.593.69m125.361.606c.825.51 2.625 1.228 4 1.596 1.737.465 2.042.386 1-.258-.825-.51-2.625-1.228-4-1.596-1.737-.465-2.042-.386-1 .258M81.158 236c0 1.375.227 1.938.504 1.25.278-.687.278-1.812 0-2.5-.277-.687-.504-.125-.504 1.25m32.342 9.528c-4.4 5.17-8.375 9.416-8.833 9.436-.459.02-4.448-.887-8.866-2.015-4.418-1.128-8.221-1.862-8.452-1.631-.389.388 15.567 4.682 17.402 4.682.452 0 4.544-4.275 9.093-9.5l8.271-9.5h12.459l8.27 9.5c4.767 5.476 8.988 9.451 9.963 9.384 1.54-.106 1.543-.156.04-.555-.91-.241-5.339-4.689-9.843-9.884L134.816 236l-6.658.064-6.658.064-8 9.4M174.158 239c0 1.375.227 1.938.504 1.25.278-.687.278-1.812 0-2.5-.277-.687-.504-.125-.504 1.25m-92 2c0 1.375.227 1.938.504 1.25.278-.687.278-1.812 0-2.5-.277-.687-.504-.125-.504 1.25m91 3c0 1.375.227 1.938.504 1.25.278-.687.278-1.812 0-2.5-.277-.687-.504-.125-.504 1.25m-89.963 2.5c.02 1.65.244 2.204.498 1.231.254-.973.237-2.323-.037-3-.274-.677-.481.119-.461 1.769m88.921 1.667c-.064.916-1.354 2.157-2.866 2.756l-2.75 1.089 2.998-.587c3.683-.722 3.793-.828 3.206-3.097-.393-1.523-.491-1.55-.588-.161m-8.303 4.516c.721.289 1.584.253 1.916-.079.332-.332-.258-.568-1.312-.525-1.165.048-1.402.285-.604.604m-4 1c.721.289 1.584.253 1.916-.079.332-.332-.258-.568-1.312-.525-1.165.048-1.402.285-.604.604m-4 1c.721.289 1.584.253 1.916-.079.332-.332-.258-.568-1.312-.525-1.165.048-1.402.285-.604.604" fill="#1976D2" fill-rule="evenodd"/></svg>